<svg width="21" height="21" xmlns="http://www.w3.org/2000/svg"><path d="M20.076 7.03l-.014-.07-.014-.04c-.008-.02-.014-.04-.024-.06-.002-.014-.012-.027-.016-.04l-.028-.053-.024-.04-.035-.048-.036-.036-.048-.036-.037-.024-.048-.035-.035-.032-.012-.016L10.963.652a.817.817 0 0 0-.911 0L1.285 6.487l-.012.012-.035.028-.048.04-.03.031-.04.045-.03.036-.04.048c-.015.013-.023.024-.023.037l-.04.047-.016.048c-.016.008-.016.032-.024.056l-.008.04c-.015.025-.015.049-.015.073v5.982c0 .035.002.072.008.108l.008.037c.004.024.008.048.016.068l.012.04c.008.022.013.043.021.06l.018.04c0 .008.012.032.024.048l.024.032c.012.008.024.032.036.048l.024.032.032.032c.008.01.008.023.024.023l.047.034.032.024.008.011 8.754 5.85c.131.095.3.13.455.13a.816.816 0 0 0 .455-.144l8.77-5.81.011-.008.037-.03.048-.033.038-.03.042-.045.026-.036.032-.048.024-.04.024-.056.013-.041.024-.062.012-.036.024-.064V7.16c0-.04 0-.075-.013-.111l-.011-.036.035.002.018.015zm-9.568 5.01l-2.913-1.946 2.913-1.95 2.913 1.948-2.913 1.947v.002zm-.825-5.325L6.113 9.1 3.23 7.173l6.453-4.301v3.844-.001zM4.63 10.093l-2.06 1.38V8.72l2.06 1.378v-.004zm1.482.997l3.57 2.386v3.847L3.23 13.02l2.887-1.93v-.002l-.004.001zm5.217 2.386l3.57-2.378 2.883 1.931-6.453 4.302v-3.855zm5.051-3.375l2.062-1.373v2.758l-2.062-1.38V10.1zm-1.48-.99l-3.57-2.387V2.87l6.452 4.301L14.9 9.098v.013z" fill="#FFF"/></svg>