<svg width="21" height="21" xmlns="http://www.w3.org/2000/svg"><path d="M10.754.7C5.089.7.5 5.291.5 10.954c0 4.531 2.938 8.374 7.011 9.729.513.096.7-.22.7-.494 0-.243-.008-.888-.012-1.743-2.852.619-3.454-1.375-3.454-1.375-.466-1.184-1.14-1.5-1.14-1.5-.93-.636.071-.623.071-.623 1.03.072 1.57 1.056 1.57 1.056.915 1.568 2.401 1.115 2.987.853.092-.663.356-1.115.65-1.372-2.278-.256-4.671-1.138-4.671-5.067 0-1.119.397-2.033 1.055-2.751-.115-.259-.461-1.301.09-2.714 0 0 .859-.275 2.82 1.051a9.83 9.83 0 0 1 2.563-.346 9.83 9.83 0 0 1 2.564.346c1.948-1.326 2.807-1.051 2.807-1.051.55 1.413.205 2.455.102 2.714.654.718 1.051 1.632 1.051 2.751 0 3.94-2.397 4.807-4.678 5.059.359.308.692.936.692 1.897 0 1.372-.013 2.475-.013 2.808 0 .269.18.59.705.487a10.218 10.218 0 0 0 7.038-9.715C21.008 5.291 16.417.7 10.754.7" fill="#FFF"/></svg>