<svg width="21" height="21" xmlns="http://www.w3.org/2000/svg"><path d="M10.418.5C7.724.5 7.388.512 6.33.56c-1.056.05-1.775.215-2.407.46a4.857 4.857 0 0 0-1.757 1.145A4.84 4.84 0 0 0 1.02 3.922C.775 4.554.608 5.273.56 6.329.51 7.387.5 7.724.5 10.42c0 2.694.012 3.03.06 4.088.05 1.055.215 1.775.46 2.408a4.864 4.864 0 0 0 1.145 1.757 4.85 4.85 0 0 0 1.757 1.144c.633.244 1.352.412 2.407.461 1.058.05 1.395.06 4.09.06 2.694 0 3.03-.013 4.088-.06 1.055-.05 1.775-.217 2.408-.461a4.875 4.875 0 0 0 1.757-1.144 4.843 4.843 0 0 0 1.144-1.757c.244-.633.412-1.353.461-2.408.05-1.058.06-1.394.06-4.089 0-2.694-.013-3.03-.06-4.089-.05-1.055-.217-1.776-.461-2.407a4.868 4.868 0 0 0-1.144-1.757 4.832 4.832 0 0 0-1.757-1.144C16.282.775 15.562.608 14.507.56 13.449.51 13.113.5 10.418.5zm0 1.785c2.648 0 2.963.014 4.009.059.967.045 1.492.206 1.84.343.465.18.794.394 1.143.74.346.348.561.677.74 1.142.136.349.298.874.342 1.84.047 1.047.058 1.361.058 4.01 0 2.647-.013 2.962-.062 4.008-.05.967-.211 1.492-.348 1.84a3.15 3.15 0 0 1-.743 1.143 3.094 3.094 0 0 1-1.14.74c-.347.136-.88.298-1.848.342-1.052.047-1.362.058-4.016.058s-2.963-.013-4.016-.062c-.967-.05-1.5-.211-1.848-.348a3.071 3.071 0 0 1-1.14-.743 3.012 3.012 0 0 1-.743-1.14c-.137-.347-.297-.88-.347-1.848-.038-1.04-.05-1.362-.05-4.003 0-2.642.012-2.964.05-4.018.05-.967.21-1.5.347-1.846A2.94 2.94 0 0 1 3.39 3.4c.346-.346.669-.57 1.14-.742.346-.137.868-.298 1.835-.348 1.054-.037 1.364-.05 4.016-.05l.037.025zm0 3.04a5.093 5.093 0 1 0 0 10.186 5.093 5.093 0 0 0 0-10.186zm0 8.4a3.305 3.305 0 1 1 0-6.613 3.305 3.305 0 1 1 0 6.612zm6.485-8.6a1.191 1.191 0 0 1-2.38 0 1.19 1.19 0 0 1 2.38 0z" fill="#FFF"/></svg>