<svg width="21" height="21" xmlns="http://www.w3.org/2000/svg"><path d="M17.64 17.744h-2.962v-4.641c0-1.107-.022-2.531-1.543-2.531-1.544 0-1.78 1.204-1.78 2.45v4.722H8.393V8.2h2.845v1.301h.039c.397-.75 1.364-1.542 2.808-1.542 3 0 3.556 1.975 3.556 4.546v5.239zM5.048 6.894c-.953 0-1.719-.771-1.719-1.72s.767-1.72 1.72-1.72a1.72 1.72 0 0 1 0 3.44zm1.485 10.85h-2.97V8.2h2.97v9.544zM19.122.7H2.077C1.26.7.6 1.345.6 2.141V19.26c0 .797.66 1.441 1.476 1.441h17.042c.815 0 1.482-.644 1.482-1.44V2.14c0-.796-.667-1.44-1.482-1.44h.003z" fill="#FFF"/></svg>