<svg width="25" height="21" xmlns="http://www.w3.org/2000/svg"><path d="M24.705 3.082c-.907.399-1.876.67-2.896.795a5.083 5.083 0 0 0 2.217-2.792 10.42 10.42 0 0 1-3.206 1.214 5.044 5.044 0 0 0-8.596 4.595c-4.193-.198-7.91-2.212-10.397-5.256a4.94 4.94 0 0 0-.683 2.538c0 1.753.892 3.294 2.244 4.2a5.028 5.028 0 0 1-2.285-.632v.062a5.047 5.047 0 0 0 4.046 4.95 5.122 5.122 0 0 1-2.268.087 5.061 5.061 0 0 0 4.72 3.503 10.117 10.117 0 0 1-6.256 2.158c-.4 0-.799-.023-1.2-.069a14.35 14.35 0 0 0 7.75 2.265c9.282 0 14.352-7.685 14.352-14.34 0-.214 0-.43-.015-.645.985-.707 1.845-1.6 2.522-2.613l-.048-.02z" fill="#FFF"/></svg>